Patient4_TMGait_0pt7_01_right_17_EMG.mot
version=1
nRows=30
nColumns=33
inDegrees=no
endheader
time	1LAddLong	2LGlutMax	3LGlutMed	4LIliopsoas	5LSemiMemb	6LBicFemLong	7LRecFem	8LVastMed	9LVastLat	10LGasMed	11LTibAnt	12lTibPost	13LPeroneusLong	14LSol	15LExtDigLong	16LFlexDigLong	17RAddLong	18RGlutMax	19RGlutMed	20RIliopsoas	21RSemiMemb	22RBicFemLong	23RRecFem	24RVastMed	25RVastLat	26RGasMed	27RTibAnt	28RTibPost	29RPeroneusLong	30RSol	31RExtDigLong	32RFlexDigLong
19.315	-0.025482	-0.73547	-0.049286	0.015717	0.039215	-0.020905	0.62363	-0.010223	0.13763	-0.096436	0.000153	-0.020599	0.041504	0.42191	0.03891	0.02594	-0.10391	-0.70847	-0.77255	-0.17532	0.097046	0.59586	-0.69565	0.28107	0.33249	0.047913	0.14053	-0.059357	-1.1665	0.64346	0.000305	-0.038147
19.316	-0.019836	-0.73822	-0.043793	-0.005493	0.039215	-0.027008	0.62546	0.000153	0.14618	-0.18738	-0.007019	0.00061	0.02182	0.13687	0.016937	0.023193	-0.090485	-0.65247	-0.14465	-0.10986	0.10803	0.90027	-0.52063	0.14648	0.3125	0.016479	0.22537	-0.060272	-1.5889	0.76736	-0.003662	-0.03952
19.317	-0.011292	-0.75119	-0.055389	0.013275	0.037842	-0.021362	0.53375	0.002899	0.15762	-0.10071	0.011444	-0.031891	-0.088196	0.0737	0.003204	0.064392	-0.047607	-0.67963	0.018463	0.015564	0.14389	1.0249	-0.40695	0.081482	0.25284	0.020294	0.053406	0.030518	-0.28214	0.37811	-0.001526	-0.017395
19.318	-0.012665	-0.73379	-0.059509	0.033569	0.04715	-0.006104	0.4715	0.000153	0.15793	-0.13947	0.004578	-0.011139	-0.22247	0.057678	-0.019073	0.008392	-0.018005	-0.71793	-0.2507	0.12604	0.097198	0.6929	-0.056915	0	-0.097961	-0.021973	-0.059662	0.084076	1.1589	0.21973	0.000458	-0.018158
19.319	-0.13382	-0.70725	-0.047455	0.019226	0.037537	-0.004272	0.43427	0.012665	0.19302	-0.1236	0.018616	0.066376	-0.49942	0.1532	0.009308	-0.054016	0.055695	-0.69031	-0.63583	0.14206	-0.014343	0.04837	0.26871	-0.09903	-0.41351	-0.050659	0.16251	0.020752	-0.20294	0.18829	0.003357	-0.027466
19.32	0.062256	-0.74234	-0.045929	0.008392	0.044556	0.014801	0.41596	0.009918	0.25146	-0.15884	-0.001221	0.17609	-0.61981	0.58929	0.030365	-0.089569	0.14832	-0.63705	-0.43762	0.13992	0.056458	-0.037689	0.31052	-0.24399	-0.54474	0.034332	0.24139	-0.031281	0.84473	0.08316	0.000305	-0.016937
19.321	0.006714	-0.76126	-0.056305	-0.007782	0.045471	0.000153	0.38956	0.006104	0.24445	0.092621	-0.008698	-0.008698	0.010834	0.73471	0.050049	-0.032654	0.15976	-0.49896	0.30365	0.11551	0.096436	-0.091705	0.092163	-0.38773	-0.47333	0.12451	-0.13596	0.016327	3.4248	0.042114	-0.001373	-0.011597
19.322	-0.002441	-0.78262	-0.052032	0.001984	0.041809	-0.00824	0.30594	0.005646	0.2504	0.50003	0.041809	-0.15823	0.44617	0.5127	0.054169	0.035553	0.055542	-0.3775	0.91309	0.11963	-0.053711	0.19745	-0.47272	-0.34531	-0.32959	0.042572	-0.17441	0.034027	-0.75195	-0.12131	-0.004272	-0.008545
19.323	-0.012817	-0.74417	-0.081635	-0.004578	0.042267	-0.003204	0.20203	0.001984	0.26703	0.48721	-0.009918	0.024109	-0.19791	0.25497	0.054016	0.049286	-0.048523	-0.26916	1.3881	0.096893	-0.33737	0.48477	-0.75317	-0.26947	-0.25314	0.032654	-0.17166	-0.030365	-1.1101	0.032196	-0.002747	-0.010071
19.324	-0.012817	-0.71686	-0.12405	0.010834	0.028381	0.005341	-0.003967	0.007019	0.25314	0.11292	0.041351	-0.005035	-0.62836	-0.59647	-0.067444	-0.028839	-0.083008	-0.22949	1.274	0.093842	-0.21591	0.849	-0.69107	-0.067444	-0.15823	0.022583	-0.22095	-0.066681	-1.0344	0.28427	-0.001526	-0.012665
19.325	-0.015106	-0.66773	-0.08316	0.003815	0.042572	-0.000458	0.021362	-0.007172	0.24597	-0.08255	-0.04715	-0.037689	-0.046234	-0.60288	-0.19012	0.009003	-0.11154	-0.08194	1.0228	0.06897	0.14725	1.013	-0.50629	0.18982	0.10376	0.014038	0.058899	-0.029755	-1.0378	0.28015	-0.005951	-0.010986
19.326	-0.016022	-0.63065	-0.037842	0.006409	0.039063	0.000458	0.18677	-0.00824	0.23727	0.048218	-0.021057	0.3186	-0.024567	-0.37064	-0.16235	-0.027466	-0.087128	0.069122	0.44373	0.07309	0.001678	0.42587	-0.45364	0.23514	0.25909	0.055847	-0.36789	0.002289	2.5404	0.057983	0.000305	-0.001526
19.327	-0.017548	-0.58853	-0.01358	0.025787	0.039063	0.00351	0.3122	-0.007935	0.25589	-0.17105	-0.018921	0.26596	0.11887	-0.47195	-0.099792	-0.025024	-0.042419	-0.080109	-0.18158	0.034485	-0.007935	-0.22217	-0.20371	0.60684	0.12024	0.075836	-0.54749	-0.011444	0.91873	-0.45258	0.001984	0.014038
19.328	-0.017853	-0.49545	0.000763	0.041351	0.038757	0.004578	0.31357	-0.01236	0.23071	-0.51437	-0.018005	-0.2478	0.11841	-0.007477	-0.029144	-0.045319	-0.006866	-0.22888	-0.53299	-0.021515	-0.11536	-0.35919	0.18463	0.93735	-0.051117	0.090637	-0.27802	0.075073	-0.8522	-0.95291	-0.000305	0.015106
19.329	-0.012817	-0.44205	-0.029755	0.037994	0.037231	-0.00885	0.19363	-0.009613	0.19714	-0.12054	-0.023804	0.08606	0.30228	0.23499	0.017853	0.037079	-0.023956	-0.49027	-0.92331	-0.056	-0.35614	-0.15305	0.28458	0.4599	-0.020447	0.064392	-0.067902	0.050812	-1.6173	-0.72433	0.001831	0.013275
19.33	-0.00473	-0.4187	-0.06485	0.010071	0.03952	-0.00351	0.20157	-0.009003	0.18158	0.25177	0.006104	0.090942	0.23682	0.45822	-0.064087	0.15182	-0.03067	-0.8493	-1.4058	-0.004272	-0.18585	0.22354	0.38284	-0.12955	0.11032	-0.009155	0.22659	-0.04425	-1.3693	-0.52567	0.00061	-0.002289
19.331	-0.019989	-0.37933	-0.083618	0.016937	0.04364	0.013275	0.33524	-0.013275	0.15854	0.16556	-0.004578	-0.095978	0.15457	0.92575	-0.012817	0.090332	-0.023041	-1.0144	-1.5273	0.001221	0.24994	0.2713	0.39917	-0.66254	0.11261	-0.03891	0.21164	-0.03479	0.03067	-0.63568	0.00061	0.006409
19.332	-0.022278	-0.31616	-0.071716	0.016479	0.041656	0.010681	0.48294	-0.00946	0.14313	0.015259	-0.011597	-0.010223	-0.093994	-0.062866	0.035553	0.037689	-0.03067	-0.9671	-1.1252	-0.045624	0.31357	0.28442	0.48904	-0.81238	0.10864	-0.020599	0.40558	-0.020599	0.44342	-0.64041	0.00473	0.016174
19.333	-0.019989	-0.31418	-0.046997	0.019073	0.040131	0.023804	0.4718	-0.019379	0.14236	-0.28259	-0.024261	0.088043	-0.38147	-0.52612	0.069122	0.018005	-0.033722	-1.1285	-0.98511	-0.088501	0.31189	0.62225	0.73181	-0.84854	0.035553	-0.029907	0.29694	0.004272	-1.7332	-0.49561	-0.001221	0.023804
19.334	-0.020752	-0.27206	-0.053711	0.027313	0.037994	0.020294	0.54504	-0.006561	0.11993	-0.26916	-0.032959	-0.022888	-0.30136	-0.19043	0.061035	0.033569	-0.025024	-1.1	-0.81696	-0.11658	0.20004	0.62302	0.78415	-0.52353	-0.043945	0.015259	0.12482	-0.000763	-0.4303	-0.38254	-0.000916	0.013428
19.335	-0.011292	-0.23331	-0.079041	0.01358	0.032196	0.005646	0.63004	0.00946	0.11368	-0.15167	-0.036316	-0.10025	-0.035095	-0.2594	-0.007019	0.036469	0.002747	-1.1667	-1.044	-0.068207	0.049591	0.33737	0.57678	-0.19821	-0.081329	0.053864	-0.05188	-0.02533	0.077057	-0.21652	-0.003357	-0.002899
19.336	-0.009003	-0.16449	-0.14938	0.010834	0.036163	0.009918	0.49789	0.008392	0.082855	-0.13886	-0.024719	-0.077972	0.078735	-0.14343	0.060425	0.033875	-0.029449	-1.1522	-1.1482	0.001984	0.061188	-0.043335	0.31586	0.2034	0.011597	0.042267	-0.068359	-0.016785	1.0571	-0.080566	0.000916	-0.016632
19.337	-0.013885	-0.074158	-0.13748	0.002441	0.036469	0.006866	0.19913	0.014191	0.067749	-0.099792	0.011902	-0.029297	0.048065	-0.059357	0.02121	0.049591	-0.026245	-0.99838	-0.46005	-0.001831	0.018311	-0.69122	0.27527	0.13367	-0.14755	0.050964	-0.14008	-0.008392	1.8477	-0.10452	-0.003052	-0.015869
19.338	-0.017548	0.00412	-0.1178	0.000305	0.031891	0.014191	-0.043488	0.012665	0.061646	-0.069122	0.039673	-0.000763	-0.02182	-0.003662	-0.032959	0.039368	0.001221	-0.90256	-0.54977	0.059967	-0.058594	-1.1586	0.57831	0.043945	-0.19959	0.030975	0.084839	-0.007477	1.2416	-0.065308	-0.000916	-0.022278
19.339	-0.006256	0.082092	-0.090637	0.029755	0.018921	0.010529	-0.12711	0.010986	0.078888	-0.054779	0.036926	-0.001831	-0.063171	0.13718	-0.077362	0.020599	0.018311	-0.86853	-0.72754	0.067902	-0.074463	-1.1795	0.62393	-0.19562	-0.13901	-0.042725	-0.13138	-0.00824	0.11368	-0.076141	0.003204	-0.018158
19.34	0.003662	0.13763	-0.051422	0.02655	0.02243	-0.003815	-0.052185	0.013428	0.066681	-0.058136	0.023499	-0.009918	-0.095367	0.12604	-0.099792	0.017395	0.032043	-0.90149	-0.46204	-0.043793	-0.12024	-1.2578	0.44601	-0.41855	-0.13107	-0.005493	-0.080566	-0.001678	0.40131	-0.22339	-0.001984	-0.018005
19.341	0.005188	0.25513	-0.071259	0.033875	0.027618	0.005646	-0.018158	0.005341	0.089722	-0.067749	-0.024719	0.011597	-0.049438	0.090485	-0.07309	0.054016	0.037537	-0.88531	0.27206	-0.18051	-0.094299	-1.0738	0.50293	-0.42053	-0.29221	-0.000458	-0.017242	-0.002747	0.19012	-0.32013	0.006256	-0.004883
19.342	0.009766	0.31235	-0.10895	0.014038	0.023346	0.016785	0.02594	-0.001221	0.068512	-0.039215	-0.01358	0.038757	-0.081329	0.092468	0.000763	0.031738	-0.021667	-0.7959	0.16251	-0.13016	-0.066528	-0.77179	0.34378	-0.15747	-0.27039	-0.024719	-0.10971	-0.007324	0.98312	-0.19409	0.000763	-0.015106
19.343	0.007019	0.40161	-0.095367	-0.00473	0.025787	-0.017395	-0.019684	0.008545	0.046997	-0.050659	0.011444	0.29327	-0.16815	0.10178	0.042572	0.025482	-0.046692	-0.746	0.30716	-0.095215	0.094299	-0.14175	-0.011444	-0.075989	-0.079193	-0.078735	-0.094147	-0.017395	-0.15182	0.11658	-0.001526	-0.014954
19.344	0.001526	0.42847	-0.097504	-0.008392	0.023499	-0.021667	0.030823	0.005035	0.016632	-0.036774	0.016479	-0.27634	-0.21729	0.075531	0.017853	0.023804	-0.053711	-0.6955	-0.73471	-0.034332	0.10986	0.093384	-0.2948	-0.37857	0.30685	-0.089111	0.46188	-0.026703	-0.78934	0.036163	-0.002747	-0.017242
